<svg width="119" height="20" viewBox="0 0 119 20" fill="none" xmlns="http://www.w3.org/2000/svg">
<path d="M6.52 1.43977C7.53333 1.43977 8.25333 1.60643 8.68 1.93976C9.12 2.2731 9.34 2.71977 9.34 3.27977C9.34 3.95977 9.04 4.45977 8.44 4.77977C7.85333 5.09976 6.94667 5.25976 5.72 5.25976C5.37333 5.25976 4.98 5.2531 4.54 5.23977C4.1 5.2131 3.64 5.18643 3.16 5.15977L3.28 4.63976C3.37333 4.99976 3.41333 5.44643 3.4 5.97977C3.4 6.49977 3.35333 7.00643 3.26 7.49977L3.08 7.21977C4.58667 7.3131 5.77333 7.4731 6.64 7.69977C7.50667 7.92643 8.12 8.21977 8.48 8.57977C8.85333 8.92643 9.04 9.3531 9.04 9.85977C9.04 10.2598 8.89333 10.5931 8.6 10.8598C8.32 11.1264 7.88667 11.2598 7.3 11.2598C6.63333 11.2598 5.9 11.1198 5.1 10.8398C4.31333 10.5464 3.5 10.1331 2.66 9.59977L3.32 9.55977C3.44 9.8531 3.55333 10.2531 3.66 10.7598C3.78 11.2531 3.87333 11.7864 3.94 12.3598C4.00667 12.9331 4.04 13.4731 4.04 13.9798C4.04 14.7664 3.87333 15.3464 3.54 15.7198C3.22 16.0931 2.77333 16.2798 2.2 16.2798C1.78667 16.2798 1.43333 16.1864 1.14 15.9998C0.86 15.8264 0.653333 15.5464 0.52 15.1598C0.36 14.7331 0.233333 14.0798 0.14 13.1998C0.0466667 12.3198 1.49012e-08 11.2198 1.49012e-08 9.89977C1.49012e-08 8.01977 0.106667 6.5331 0.32 5.43976C0.533333 4.3331 0.806667 3.54643 1.14 3.07977C1.43333 2.67977 1.86667 2.35976 2.44 2.11976C3.02667 1.87976 3.68 1.70643 4.4 1.59977C5.12 1.4931 5.82667 1.43977 6.52 1.43977ZM19.1045 15.6398C18.6779 15.6398 18.3445 15.5198 18.1045 15.2798C17.8779 15.0264 17.7245 14.7064 17.6445 14.3198C17.5645 13.9198 17.5245 13.4998 17.5245 13.0598L17.6245 12.9798C17.4645 13.5531 17.1845 14.0464 16.7845 14.4598C16.3979 14.8731 15.9445 15.1931 15.4245 15.4198C14.9179 15.6331 14.4112 15.7398 13.9045 15.7398C13.1845 15.7398 12.5445 15.5798 11.9845 15.2598C11.4379 14.9264 11.0045 14.4064 10.6845 13.6998C10.3912 13.0331 10.1579 12.1664 9.98453 11.0998C9.82453 10.0331 9.74453 8.9331 9.74453 7.79976C9.74453 7.22643 9.76453 6.69977 9.80453 6.21977C9.85786 5.72643 9.93786 5.31977 10.0445 4.99976C10.1779 4.58643 10.3845 4.28643 10.6645 4.09977C10.9445 3.89976 11.2912 3.79976 11.7045 3.79976C12.1845 3.79976 12.5645 3.9731 12.8445 4.31977C13.1245 4.6531 13.2912 5.12643 13.3445 5.73976C13.3979 6.16643 13.4312 6.67977 13.4445 7.27977C13.4712 7.86643 13.4979 8.4531 13.5245 9.03977C13.5512 9.62643 13.5779 10.1198 13.6045 10.5198C13.6845 11.1998 13.8579 11.6998 14.1245 12.0198C14.4045 12.3398 14.7512 12.4998 15.1645 12.4998C15.7512 12.4998 16.1979 12.2664 16.5045 11.7998C16.8112 11.3198 16.9645 10.6598 16.9645 9.81977C16.9645 9.3931 16.9379 8.90643 16.8845 8.35977C16.8445 7.8131 16.7979 7.27977 16.7445 6.75977C16.7045 6.23977 16.6845 5.8131 16.6845 5.47977C16.6845 4.74643 16.8179 4.21977 17.0845 3.89976C17.3512 3.57976 17.7245 3.41976 18.2045 3.41976C18.6045 3.41976 18.9445 3.51976 19.2245 3.71976C19.5179 3.90643 19.7379 4.1731 19.8845 4.51976C20.0712 4.91977 20.2312 5.45977 20.3645 6.13976C20.4979 6.81977 20.6045 7.5931 20.6845 8.45977C20.7645 9.3131 20.8045 10.2198 20.8045 11.1798C20.8045 12.6731 20.6779 13.7931 20.4245 14.5398C20.1845 15.2731 19.7445 15.6398 19.1045 15.6398ZM24.1366 3.31976C24.6566 3.31976 25.0166 3.4931 25.2166 3.83977C25.4166 4.18643 25.5166 4.69976 25.5166 5.37976C25.5166 5.53976 25.5032 5.7131 25.4766 5.89977C25.4632 6.0731 25.4366 6.2331 25.3966 6.37977L25.3566 5.97977C25.6632 5.1131 26.1432 4.43977 26.7966 3.95976C27.4632 3.46643 28.1699 3.21976 28.9166 3.21976C29.7699 3.21976 30.4832 3.45977 31.0566 3.93977C31.6299 4.41977 32.0566 5.0931 32.3366 5.95977C32.6299 6.82643 32.7766 7.8531 32.7766 9.03977C32.7766 9.71977 32.7432 10.3864 32.6766 11.0398C32.6232 11.6931 32.5499 12.2931 32.4566 12.8398C32.3632 13.3731 32.2499 13.8131 32.1166 14.1598C31.9299 14.6264 31.6766 14.9798 31.3566 15.2198C31.0499 15.4464 30.6832 15.5598 30.2566 15.5598C29.8032 15.5598 29.4566 15.4064 29.2166 15.0998C28.9766 14.7798 28.8566 14.3464 28.8566 13.7998C28.8566 13.3731 28.8832 12.8598 28.9366 12.2598C28.9899 11.6464 29.0432 11.0331 29.0966 10.4198C29.1499 9.7931 29.1766 9.24643 29.1766 8.77977C29.1766 7.21977 28.6766 6.43977 27.6766 6.43977C27.1432 6.43977 26.6899 6.68643 26.3166 7.17977C25.9566 7.65977 25.7166 8.34643 25.5966 9.23977C25.5566 9.58643 25.5299 10.0198 25.5166 10.5398C25.5166 11.0464 25.5099 11.5531 25.4966 12.0598C25.4966 12.5531 25.4832 12.9731 25.4566 13.3198C25.3899 14.1864 25.2032 14.8064 24.8966 15.1798C24.5899 15.5531 24.1766 15.7398 23.6566 15.7398C23.0299 15.7398 22.5566 15.5131 22.2366 15.0598C21.9299 14.5931 21.7766 13.8131 21.7766 12.7198C21.7766 12.1598 21.7899 11.5331 21.8166 10.8398C21.8432 10.1464 21.8766 9.4531 21.9166 8.75977C21.9699 8.0531 22.0299 7.4131 22.0966 6.83977C22.2299 5.75977 22.4499 4.90643 22.7566 4.27977C23.0632 3.63977 23.5232 3.31976 24.1366 3.31976ZM37.61 15.1998C36.3567 15.1998 35.35 14.7264 34.59 13.7798C33.83 12.8331 33.45 11.3931 33.45 9.45977C33.45 7.3931 33.81 5.88643 34.53 4.93977C35.2633 3.97977 36.2567 3.49976 37.51 3.49976C38.2567 3.49976 38.9167 3.67976 39.49 4.03977C40.0633 4.38643 40.5633 4.87977 40.99 5.51977L40.77 6.03977C40.73 5.8531 40.6967 5.6531 40.67 5.43976C40.6433 5.22643 40.63 5.06643 40.63 4.95977C40.63 4.3731 40.7433 3.91976 40.97 3.59976C41.1967 3.27976 41.55 3.11977 42.03 3.11977C42.55 3.11977 42.97 3.3131 43.29 3.69976C43.61 4.08643 43.8433 4.63977 43.99 5.35976C44.15 5.98643 44.2833 6.77977 44.39 7.73977C44.4967 8.69977 44.55 9.6731 44.55 10.6598C44.55 11.9398 44.5033 13.0131 44.41 13.8798C44.3167 14.7464 44.1633 15.4664 43.95 16.0398C43.7367 16.6131 43.4567 17.1131 43.11 17.5398C42.5233 18.2464 41.75 18.7798 40.79 19.1398C39.83 19.4998 38.73 19.6798 37.49 19.6798C36.5833 19.6798 35.8567 19.5931 35.31 19.4198C34.7767 19.2464 34.39 19.0131 34.15 18.7198C33.91 18.4264 33.79 18.0931 33.79 17.7198C33.79 17.2931 33.8967 16.9398 34.11 16.6598C34.3233 16.3798 34.65 16.2398 35.09 16.2398C35.49 16.2398 35.93 16.2798 36.41 16.3598C36.9033 16.4398 37.4567 16.4798 38.07 16.4798C39.23 16.4798 40.05 16.2331 40.53 15.7398C41.01 15.2464 41.25 14.5331 41.25 13.5998C41.25 13.2931 41.23 12.9331 41.19 12.5198L41.47 12.4998C41.1233 13.3264 40.6167 13.9864 39.95 14.4798C39.2833 14.9598 38.5033 15.1998 37.61 15.1998ZM38.87 12.3798C39.23 12.3798 39.5833 12.2798 39.93 12.0798C40.2767 11.8798 40.5567 11.5531 40.77 11.0998C40.9967 10.6464 41.11 10.0331 41.11 9.25977C41.11 8.33977 40.9167 7.5931 40.53 7.01977C40.1433 6.4331 39.57 6.13976 38.81 6.13976C38.17 6.13976 37.6833 6.39976 37.35 6.91976C37.03 7.42643 36.87 8.19977 36.87 9.23977C36.87 10.2264 37.03 10.9998 37.35 11.5598C37.6833 12.1064 38.19 12.3798 38.87 12.3798ZM47.6477 0.419765C48.2877 0.419765 48.7477 0.586432 49.0277 0.919765C49.3077 1.2531 49.4477 1.6331 49.4477 2.05976C49.4477 2.5931 49.2743 3.00643 48.9277 3.29977C48.581 3.5931 48.0943 3.73977 47.4677 3.73977C46.8543 3.73977 46.3943 3.57977 46.0877 3.25977C45.7943 2.93976 45.6477 2.55976 45.6477 2.11976C45.6477 1.55976 45.8277 1.13976 46.1877 0.859764C46.561 0.566432 47.0477 0.419765 47.6477 0.419765ZM47.7877 4.87977C48.3077 4.87977 48.7143 5.27977 49.0077 6.07977C49.301 6.87977 49.4477 8.1531 49.4477 9.89977C49.4477 12.0464 49.261 13.5931 48.8877 14.5398C48.5277 15.4864 47.9743 15.9598 47.2277 15.9598C46.6543 15.9598 46.2277 15.6131 45.9477 14.9198C45.681 14.2131 45.5477 12.9864 45.5477 11.2398C45.5477 9.0931 45.7543 7.49977 46.1677 6.45976C46.5943 5.40643 47.1343 4.87977 47.7877 4.87977ZM57.0708 1.43977C58.0841 1.43977 58.8041 1.60643 59.2308 1.93976C59.6708 2.2731 59.8908 2.71977 59.8908 3.27977C59.8908 3.95977 59.5908 4.45977 58.9908 4.77977C58.4041 5.09976 57.4974 5.25976 56.2708 5.25976C55.9241 5.25976 55.5308 5.2531 55.0908 5.23977C54.6508 5.2131 54.1908 5.18643 53.7108 5.15977L53.8308 4.63976C53.9241 4.99976 53.9641 5.44643 53.9508 5.97977C53.9508 6.49977 53.9041 7.00643 53.8108 7.49977L53.6308 7.21977C55.1374 7.3131 56.3241 7.4731 57.1908 7.69977C58.0574 7.92643 58.6708 8.21977 59.0308 8.57977C59.4041 8.92643 59.5908 9.3531 59.5908 9.85977C59.5908 10.2598 59.4441 10.5931 59.1508 10.8598C58.8708 11.1264 58.4374 11.2598 57.8508 11.2598C57.1841 11.2598 56.4508 11.1198 55.6508 10.8398C54.8641 10.5464 54.0508 10.1331 53.2108 9.59977L53.8708 9.55977C53.9908 9.8531 54.1041 10.2531 54.2108 10.7598C54.3308 11.2531 54.4241 11.7864 54.4908 12.3598C54.5574 12.9331 54.5908 13.4731 54.5908 13.9798C54.5908 14.7664 54.4241 15.3464 54.0908 15.7198C53.7708 16.0931 53.3241 16.2798 52.7508 16.2798C52.3374 16.2798 51.9841 16.1864 51.6908 15.9998C51.4108 15.8264 51.2041 15.5464 51.0708 15.1598C50.9108 14.7331 50.7841 14.0798 50.6908 13.1998C50.5974 12.3198 50.5508 11.2198 50.5508 9.89977C50.5508 8.01977 50.6574 6.5331 50.8708 5.43976C51.0841 4.3331 51.3574 3.54643 51.6908 3.07977C51.9841 2.67977 52.4174 2.35976 52.9908 2.11976C53.5774 1.87976 54.2308 1.70643 54.9508 1.59977C55.6708 1.4931 56.3774 1.43977 57.0708 1.43977ZM62.3953 0.419765C63.0353 0.419765 63.4953 0.586432 63.7753 0.919765C64.0553 1.2531 64.1953 1.6331 64.1953 2.05976C64.1953 2.5931 64.022 3.00643 63.6753 3.29977C63.3286 3.5931 62.842 3.73977 62.2153 3.73977C61.602 3.73977 61.142 3.57977 60.8353 3.25977C60.542 2.93976 60.3953 2.55976 60.3953 2.11976C60.3953 1.55976 60.5753 1.13976 60.9353 0.859764C61.3086 0.566432 61.7953 0.419765 62.3953 0.419765ZM62.5353 4.87977C63.0553 4.87977 63.462 5.27977 63.7553 6.07977C64.0486 6.87977 64.1953 8.1531 64.1953 9.89977C64.1953 12.0464 64.0086 13.5931 63.6353 14.5398C63.2753 15.4864 62.722 15.9598 61.9753 15.9598C61.402 15.9598 60.9753 15.6131 60.6953 14.9198C60.4286 14.2131 60.2953 12.9864 60.2953 11.2398C60.2953 9.0931 60.502 7.49977 60.9153 6.45976C61.342 5.40643 61.882 4.87977 62.5353 4.87977ZM67.5584 3.31976C68.0784 3.31976 68.4384 3.4931 68.6384 3.83977C68.8384 4.18643 68.9384 4.69976 68.9384 5.37976C68.9384 5.53976 68.9251 5.7131 68.8984 5.89977C68.8851 6.0731 68.8584 6.2331 68.8184 6.37977L68.7784 5.97977C69.0851 5.1131 69.5651 4.43977 70.2184 3.95976C70.8851 3.46643 71.5918 3.21976 72.3384 3.21976C73.1918 3.21976 73.9051 3.45977 74.4784 3.93977C75.0518 4.41977 75.4784 5.0931 75.7584 5.95977C76.0518 6.82643 76.1984 7.8531 76.1984 9.03977C76.1984 9.71977 76.1651 10.3864 76.0984 11.0398C76.0451 11.6931 75.9718 12.2931 75.8784 12.8398C75.7851 13.3731 75.6718 13.8131 75.5384 14.1598C75.3518 14.6264 75.0984 14.9798 74.7784 15.2198C74.4718 15.4464 74.1051 15.5598 73.6784 15.5598C73.2251 15.5598 72.8784 15.4064 72.6384 15.0998C72.3984 14.7798 72.2784 14.3464 72.2784 13.7998C72.2784 13.3731 72.3051 12.8598 72.3584 12.2598C72.4118 11.6464 72.4651 11.0331 72.5184 10.4198C72.5718 9.7931 72.5984 9.24643 72.5984 8.77977C72.5984 7.21977 72.0984 6.43977 71.0984 6.43977C70.5651 6.43977 70.1118 6.68643 69.7384 7.17977C69.3784 7.65977 69.1384 8.34643 69.0184 9.23977C68.9784 9.58643 68.9518 10.0198 68.9384 10.5398C68.9384 11.0464 68.9318 11.5531 68.9184 12.0598C68.9184 12.5531 68.9051 12.9731 68.8784 13.3198C68.8118 14.1864 68.6251 14.8064 68.3184 15.1798C68.0118 15.5531 67.5984 15.7398 67.0784 15.7398C66.4518 15.7398 65.9784 15.5131 65.6584 15.0598C65.3518 14.5931 65.1984 13.8131 65.1984 12.7198C65.1984 12.1598 65.2118 11.5331 65.2384 10.8398C65.2651 10.1464 65.2984 9.4531 65.3384 8.75977C65.3918 8.0531 65.4518 7.4131 65.5184 6.83977C65.6518 5.75977 65.8718 4.90643 66.1784 4.27977C66.4851 3.63977 66.9451 3.31976 67.5584 3.31976ZM80.9719 16.0398C79.6919 16.0398 78.6852 15.5531 77.9519 14.5798C77.2319 13.5931 76.8719 12.0931 76.8719 10.0798C76.8719 8.07977 77.2252 6.61977 77.9319 5.69977C78.6385 4.76643 79.6519 4.29977 80.9719 4.29977C81.7452 4.29977 82.4252 4.45977 83.0119 4.77977C83.5985 5.09976 84.1252 5.5531 84.5919 6.13976L84.3519 6.21977C84.2585 5.69977 84.1585 5.14643 84.0519 4.55977C83.9452 3.9731 83.8585 3.41977 83.7919 2.89977C83.7385 2.37977 83.7119 1.96643 83.7119 1.65976C83.7119 1.12643 83.8119 0.719765 84.0119 0.439765C84.2252 0.146431 84.5519 -0.000235319 84.9919 -0.000235319C85.5385 -0.000235319 85.9785 0.206431 86.3119 0.619765C86.6585 1.0331 86.9319 1.65977 87.1319 2.49976C87.2919 3.1531 87.4319 3.93977 87.5519 4.85977C87.6719 5.77977 87.7652 6.74643 87.8319 7.75977C87.9119 8.75977 87.9519 9.7131 87.9519 10.6198C87.9519 12.0064 87.8652 13.0931 87.6919 13.8798C87.5319 14.6531 87.2985 15.1931 86.9919 15.4998C86.6852 15.8064 86.3252 15.9598 85.9119 15.9598C85.4185 15.9598 85.0785 15.7531 84.8919 15.3398C84.7185 14.9264 84.6319 14.2531 84.6319 13.3198H84.9719C84.6119 14.1464 84.0852 14.8064 83.3919 15.2998C82.7119 15.7931 81.9052 16.0398 80.9719 16.0398ZM82.4119 13.1198C82.8119 13.1198 83.1785 13.0131 83.5119 12.7998C83.8452 12.5864 84.1119 12.2531 84.3119 11.7998C84.5119 11.3331 84.6119 10.7531 84.6119 10.0598C84.6119 9.1531 84.4252 8.4131 84.0519 7.83977C83.6785 7.26643 83.1185 6.97977 82.3719 6.97977C81.7852 6.97977 81.3052 7.2331 80.9319 7.73977C80.5585 8.24643 80.3719 9.0131 80.3719 10.0398C80.3719 10.9331 80.5585 11.6731 80.9319 12.2598C81.3052 12.8331 81.7985 13.1198 82.4119 13.1198ZM94.93 15.9198C93.3833 15.9198 92.15 15.6998 91.23 15.2598C90.3233 14.8198 89.6633 14.1864 89.25 13.3598C88.85 12.5331 88.65 11.5464 88.65 10.3998C88.65 8.94643 88.93 7.7131 89.49 6.69977C90.0633 5.6731 90.8433 4.88643 91.83 4.33976C92.83 3.7931 93.9633 3.51976 95.23 3.51976C96.7367 3.51976 97.8367 3.84643 98.53 4.49977C99.2233 5.13976 99.57 5.98643 99.57 7.03977C99.57 7.87977 99.3433 8.60643 98.89 9.21977C98.45 9.8331 97.8367 10.3064 97.05 10.6398C96.2633 10.9598 95.3567 11.1198 94.33 11.1198C93.7833 11.1198 93.2567 11.0664 92.75 10.9598C92.2567 10.8398 91.81 10.6798 91.41 10.4798L91.89 9.49977C91.85 9.81977 91.83 10.1398 91.83 10.4598C91.83 11.2598 92.09 11.8331 92.61 12.1798C93.13 12.5131 93.8633 12.6798 94.81 12.6798C95.61 12.6798 96.2633 12.6064 96.77 12.4598C97.2767 12.2998 97.71 12.1464 98.07 11.9998C98.43 11.8531 98.7767 11.7798 99.11 11.7798C99.3233 11.7798 99.5233 11.8398 99.71 11.9598C99.91 12.0664 100.07 12.2264 100.19 12.4398C100.323 12.6531 100.39 12.9198 100.39 13.2398C100.39 13.7198 100.183 14.1664 99.77 14.5798C99.3567 14.9798 98.7433 15.3064 97.93 15.5598C97.1167 15.7998 96.1167 15.9198 94.93 15.9198ZM93.77 9.19977C94.5967 9.19977 95.2767 9.01977 95.81 8.65977C96.3433 8.28643 96.61 7.8331 96.61 7.29977C96.61 6.9131 96.47 6.5931 96.19 6.33977C95.9233 6.0731 95.51 5.93977 94.95 5.93977C94.4167 5.93977 93.9233 6.04643 93.47 6.25977C93.03 6.45977 92.6767 6.72643 92.41 7.05976C92.1567 7.37977 92.03 7.7331 92.03 8.11977C92.03 8.46643 92.1833 8.7331 92.49 8.91977C92.7967 9.10643 93.2233 9.19977 93.77 9.19977ZM100.865 7.03977C100.865 5.6531 101.012 4.6531 101.305 4.03977C101.598 3.42643 102.018 3.11977 102.565 3.11977C102.965 3.11977 103.278 3.26643 103.505 3.55977C103.732 3.83976 103.898 4.1931 104.005 4.61976C104.112 5.0331 104.165 5.4531 104.165 5.87977L104.065 5.83977C104.292 5.11977 104.638 4.49977 105.105 3.97976C105.572 3.45977 106.138 3.19977 106.805 3.19977C107.618 3.19977 108.218 3.5331 108.605 4.19977C109.005 4.8531 109.205 5.6731 109.205 6.65977C109.205 7.96643 109.032 8.87977 108.685 9.39977C108.338 9.91977 107.878 10.1798 107.305 10.1798C106.878 10.1798 106.565 10.0331 106.365 9.73977C106.165 9.44643 106.092 8.9531 106.145 8.25977C106.185 7.60643 106.145 7.1531 106.025 6.89977C105.918 6.64643 105.745 6.51977 105.505 6.51977C105.198 6.51977 104.952 6.70643 104.765 7.07977C104.592 7.43977 104.505 7.90643 104.505 8.47977C104.505 8.74643 104.538 9.0931 104.605 9.51977C104.672 9.9331 104.745 10.3864 104.825 10.8798C104.905 11.3598 104.978 11.8398 105.045 12.3198C105.112 12.7998 105.145 13.2464 105.145 13.6598C105.145 14.4198 104.998 14.9664 104.705 15.2998C104.412 15.6331 103.998 15.7998 103.465 15.7998C102.905 15.7998 102.465 15.6398 102.145 15.3198C101.825 14.9998 101.592 14.4798 101.445 13.7598C101.352 13.1998 101.258 12.5264 101.165 11.7398C101.072 10.9398 100.998 10.1264 100.945 9.29977C100.892 8.45977 100.865 7.70643 100.865 7.03977ZM115.094 3.23976C116.374 3.23976 117.294 3.44643 117.854 3.85977C118.428 4.25977 118.714 4.77977 118.714 5.41977C118.714 5.81977 118.581 6.14643 118.314 6.39977C118.061 6.63977 117.694 6.75977 117.214 6.75977C116.801 6.75977 116.361 6.69977 115.894 6.57977C115.428 6.44643 114.894 6.37977 114.294 6.37977C113.774 6.37977 113.381 6.48643 113.114 6.69977C112.848 6.89977 112.714 7.1531 112.714 7.45977C112.714 7.76643 112.834 8.0131 113.074 8.19977C113.328 8.3731 113.828 8.49977 114.574 8.57977C115.548 8.68643 116.361 8.85977 117.014 9.09977C117.668 9.32643 118.154 9.67977 118.474 10.1598C118.808 10.6264 118.974 11.2798 118.974 12.1198C118.974 13.3998 118.514 14.3398 117.594 14.9398C116.674 15.5398 115.394 15.8398 113.754 15.8398C112.688 15.8398 111.834 15.7464 111.194 15.5598C110.554 15.3731 110.088 15.1064 109.794 14.7598C109.514 14.4131 109.374 14.0131 109.374 13.5598C109.374 13.1331 109.514 12.8064 109.794 12.5798C110.074 12.3398 110.408 12.2198 110.794 12.2198C111.101 12.2198 111.428 12.2598 111.774 12.3398C112.121 12.4064 112.488 12.4864 112.874 12.5798C113.261 12.6598 113.661 12.6998 114.074 12.6998C115.088 12.6998 115.594 12.3931 115.594 11.7798C115.594 11.5664 115.541 11.3931 115.434 11.2598C115.328 11.1131 115.128 10.9931 114.834 10.8998C114.554 10.8064 114.134 10.7264 113.574 10.6598C112.734 10.5798 112.008 10.4398 111.394 10.2398C110.781 10.0264 110.308 9.69977 109.974 9.25977C109.641 8.80643 109.474 8.1931 109.474 7.41977C109.474 6.16643 109.961 5.15977 110.934 4.39977C111.908 3.62643 113.294 3.23976 115.094 3.23976Z" fill="#F59C5C"/>
</svg>
